<?xml version="1.0" standalone="no"?><!DOCTYPE svg PUBLIC "-//W3C//DTD SVG 1.1//EN" "http://www.w3.org/Graphics/SVG/1.1/DTD/svg11.dtd"><svg t="1523520298881" class="icon" style="" viewBox="0 0 1024 1024" version="1.1" xmlns="http://www.w3.org/2000/svg" p-id="1895" xmlns:xlink="http://www.w3.org/1999/xlink" width="400" height="400"><defs><style type="text/css"></style></defs><path d="M780.051999 657.456143h15.853447l5.645726-6.979748h-15.845706z" fill="#EAEBEA" p-id="1896"></path><path d="M768.755387 671.405318h15.848285l5.650887-6.974587h-15.848286z" fill="#E9E9EA" p-id="1897"></path><path d="M774.406273 664.430731h15.848286l5.650887-6.974588h-15.853447z" fill="#E9EBEA" p-id="1898"></path><path d="M785.705466 650.476395h15.845706l5.656047-6.977167h-15.853446z" fill="#ECEDEC" p-id="1899"></path><path d="M797.007239 636.52464h15.845706l5.656047-6.979748h-15.856027z" fill="#EEEFEF" p-id="1900"></path><path d="M791.353773 643.499228h15.853446l5.645726-6.974588h-15.845706z" fill="#ECEDEC" p-id="1901"></path><path d="M734.855228 713.265745h15.845705l5.653467-6.977168h-15.853446z" fill="#E3E5E4" p-id="1902"></path><path d="M746.154421 699.313989h15.845705l5.656047-6.979748h-15.853446z" fill="#E5E6E5" p-id="1903"></path><path d="M763.10192 678.385066h15.853446l5.648306-6.979748h-15.848285z" fill="#E8EAE9" p-id="1904"></path><path d="M802.652965 629.544892h15.856027l5.645726-6.974587H808.309013z" fill="#EEEFEF" p-id="1905"></path><path d="M740.500954 706.288577h15.853446l5.645726-6.974588h-15.845705z" fill="#E5E6E4" p-id="1906"></path><path d="M757.458774 685.359654h15.845706l5.650886-6.974588h-15.853446z" fill="#E7E9E7" p-id="1907"></path><path d="M751.802727 692.334241h15.853446l5.648307-6.974587h-15.845706z" fill="#E6E8E6" p-id="1908"></path><path d="M830.904818 594.666794h15.853446l5.648307-6.979748h-15.848286z" fill="#F3F3F3" p-id="1909"></path><path d="M870.458444 545.82662h15.848286l5.656047-6.974587h-15.850866z" fill="#F8FAFA" p-id="1910"></path><path d="M853.505784 566.755543h15.853447l5.648306-6.974587h-15.845705zM859.161832 559.780956h15.845705l5.650886-6.974588h-15.853446z" fill="#F7F7F6" p-id="1911"></path><path d="M864.804977 552.806368h15.853446l5.648307-6.979748h-15.848286z" fill="#F7F9F9" p-id="1912"></path><path d="M808.309013 622.570305h15.845705l5.653467-6.974588h-15.853446z" fill="#EFF0F0" p-id="1913"></path><path d="M881.757637 531.877445l-5.645726 6.974588h15.850866l5.645726-6.974588z" fill="#FAFBFB" p-id="1914"></path><path d="M903.25939 524.897697h-15.848286l-5.653467 6.979748h15.850866z" fill="#FBFCFB" p-id="1915"></path><path d="M825.259092 601.641382h15.848286l5.650886-6.974588h-15.853446z" fill="#F2F3F3" p-id="1916"></path><path d="M819.605625 608.615969h15.850866l5.650887-6.974587h-15.848286z" fill="#F1F1F1" p-id="1917"></path><path d="M813.954739 615.595717h15.853446l5.648306-6.979748h-15.850866z" fill="#F0F0EF" p-id="1918"></path><path d="M842.206591 580.712459h15.853447l5.645726-6.977168h-15.845706zM836.558285 587.687046h15.848286l5.653467-6.974587h-15.853447z" fill="#F4F4F5" p-id="1919"></path><path d="M847.860058 573.735291h15.845706l5.653467-6.979748h-15.853447z" fill="#F5F6F5" p-id="1920"></path><path d="M262.177916 657.456143h20.642508l7.359054-6.979748h-20.642508z" fill="#EAEBEA" p-id="1921"></path><path d="M247.462388 671.405318h20.642508l7.359054-6.974587h-20.642508z" fill="#E9E9EA" p-id="1922"></path><path d="M254.821442 664.430731h20.642508l7.356474-6.974588h-20.642508z" fill="#E9EBEA" p-id="1923"></path><path d="M269.53697 650.476395h20.642508l7.356474-6.977167h-20.642508z" fill="#ECEDEC" p-id="1924"></path><path d="M284.252498 636.52464h20.642508l7.359054-6.979748h-20.642508z" fill="#EEEFEF" p-id="1925"></path><path d="M276.893444 643.499228h20.642508l7.359054-6.974588h-20.642508z" fill="#ECEDEC" p-id="1926"></path><path d="M203.310643 713.265745h20.642508l7.356474-6.977168h-20.642508z" fill="#E3E5E4" p-id="1927"></path><path d="M218.026171 699.313989h20.642508l7.359054-6.979748h-20.642508z" fill="#E5E6E5" p-id="1928"></path><path d="M240.103333 678.385066h20.642509l7.359054-6.979748h-20.642508z" fill="#E8EAE9" p-id="1929"></path><path d="M291.611552 629.544892h20.642508l7.361635-6.974587h-20.642509z" fill="#EEEFEF" p-id="1930"></path><path d="M210.667117 706.288577h20.642508l7.359054-6.974588h-20.642508z" fill="#E5E6E4" p-id="1931"></path><path d="M232.744279 685.359654h20.642508l7.359055-6.974588h-20.642509z" fill="#E7E9E7" p-id="1932"></path><path d="M225.385225 692.334241h20.642508l7.359054-6.974587h-20.642508z" fill="#E6E8E6" p-id="1933"></path><path d="M328.401662 594.666794h20.642508l7.364215-6.979748h-20.645088z" fill="#F3F3F3" p-id="1934"></path><path d="M379.915041 545.82662h20.642508l7.361635-6.974587h-20.642508z" fill="#F8FAFA" p-id="1935"></path><path d="M357.837879 566.755543h20.642508l7.361634-6.974587h-20.642508zM365.199513 559.780956h20.642508l7.356474-6.974588h-20.642508z" fill="#F7F7F6" p-id="1936"></path><path d="M372.555987 552.806368h20.642508l7.359054-6.979748h-20.642508z" fill="#F7F9F9" p-id="1937"></path><path d="M298.973186 622.570305h20.642509l7.356473-6.974588h-20.642508z" fill="#EFF0F0" p-id="1938"></path><path d="M394.630569 531.877445l-7.353893 6.974588h20.642508l7.351313-6.974588z" fill="#FAFBFB" p-id="1939"></path><path d="M422.634712 524.897697h-20.642508l-7.361635 6.979748h20.639928z" fill="#FBFCFB" p-id="1940"></path><path d="M321.047769 601.641382h20.642508l7.353893-6.974588h-20.642508z" fill="#F2F3F3" p-id="1941"></path><path d="M313.688714 608.615969h20.642509l7.359054-6.974587h-20.642508z" fill="#F1F1F1" p-id="1942"></path><path d="M306.32966 615.595717h20.642508l7.359055-6.979748h-20.642509z" fill="#F0F0EF" p-id="1943"></path><path d="M343.11977 580.712459h20.642509l7.361634-6.977168h-20.642508zM335.763297 587.687046h20.645088l7.353894-6.974587h-20.642509z" fill="#F4F4F5" p-id="1944"></path><path d="M350.481405 573.735291h20.642508l7.356474-6.979748h-20.642508z" fill="#F5F6F5" p-id="1945"></path><path d="M203.310643 713.265745V398.464915h20.642508v314.80083z" fill="#EAECEF" p-id="1946"></path><path d="M729.694601 713.265745V398.464915h20.642508v314.80083z" fill="#EAECEF" p-id="1947"></path><path d="M729.694601 398.464915h20.642508v51.60627h-20.642508zM203.310643 398.464915h20.642508v51.60627h-20.642508z" fill="#D2D5D7" p-id="1948"></path><path d="M120.74061 305.573628h701.847858v108.373168H120.74061z" fill="#B1BBC7" p-id="1949"></path><path d="M232.682352 413.946796h123.855049l91.103129-108.373168h-123.852468zM705.669302 305.573628h-123.855049l-91.100549 108.373168h123.852468zM120.74061 387.493422l68.871149-81.919794H120.74061zM822.588468 413.946796v-87.839033l-73.845993 87.839033z" fill="#EAECEF" p-id="1950"></path></svg>