<?xml version="1.0" standalone="no"?><!DOCTYPE svg PUBLIC "-//W3C//DTD SVG 1.1//EN" "http://www.w3.org/Graphics/SVG/1.1/DTD/svg11.dtd"><svg t="1523520210178" class="icon" style="" viewBox="0 0 1024 1024" version="1.1" xmlns="http://www.w3.org/2000/svg" p-id="1628" data-spm-anchor-id="a313x.7781069.0.i9" xmlns:xlink="http://www.w3.org/1999/xlink" width="400" height="400"><defs><style type="text/css"></style></defs><path d="M216.054267 633.705341v-243.580982H186.641347l-166.169191 249.773719v19.089111h166.169191v107.343352h29.41034v-107.340772h53.159485v-25.287008H216.054267z m-29.41292-138.823098v138.817937H55.04827l102.182738-149.139165a678.228539 678.228539 0 0 0 29.934142-52.124782h2.577726c-1.550765 17.546088-3.101529 45.410823-3.101529 62.44601zM950.370939 633.705341v-243.580982H920.96318l-166.171772 249.776299v19.089111h166.171772v107.343353h29.405179v-107.340772h53.156905v-25.287009h-53.154325z m-29.410339-138.823098v138.817937h-131.595658l102.180158-149.139165a670.58825 670.58825 0 0 0 29.931561-52.124782h2.582888c-1.553345 17.546088-3.098949 45.410823-3.098949 62.44601z" fill="#C1CBD3" p-id="1629"></path><path d="M520.277625 581.830849m-184.685475 0a184.685475 184.685475 0 1 0 369.37095 0 184.685475 184.685475 0 1 0-369.37095 0Z" fill="#FBFCFD" p-id="1630"></path><path d="M481.020834 400.793928a183.227601 183.227601 0 0 0-29.50065 9.229758c0.325119 1.078568 0.846341 2.144235 1.545604 3.173778 2.420328 3.602109 4.737444 3.315695 9.472307 4.316854-0.50058 5.506375-6.933285 5.54508-11.275942 4.954189-5.196738-0.712165-10.654088-2.43839-15.148982 2.110691 2.484836 1.493998 9.299426 7.320331 8.396319 1.235967 4.974832-0.247709 9.776783-0.392207 14.645822 0.196104 1.953292 0.247709 8.478889 2.430649 10.25414 1.442391 0.740548-0.42317 1.537863-4.094947 2.317116-5.219961-1.388205 0.010321-2.871882-0.694103-4.252346-0.559926 3.220223-4.136232 6.430125-0.892786 10.530233 1.01148-4.512957 2.742866-1.834598 9.32523 2.577727 3.981414 3.620171-4.399423-0.890206-7.583522-5.488313-10.156089 4.639392-5.810851 7.495792-6.337234 11.871992 0.227067 0.717325-4.045921 3.983994-2.425489 7.387419-2.126173v-1.016641c-1.499158 0.041285-3.098949-0.825698-4.582625-0.67604 3.478254-5.542499 1.251449-6.817171 6.22112-8.623386 3.95045-1.447552 15.228972-0.103212 16.617177-3.818855-7.89832 1.537863-17.427394 1.899106-24.554201 5.498635-3.065405 1.553345-6.72428 6.440446-9.797426 3.264088-2.404846-2.500317 0.178041-6.148872 2.763509-8.445345zM545.177588 397.914306c-0.642496 0.970195 0.08515 1.821697-1.452713 2.957031-3.981414 2.93897-11.043714 5.37994-15.781158 7.235181 6.019856-0.015482 20.59343 5.650872 23.398224-2.802213-1.942971-0.296735-3.883362-0.598631-5.826333-0.900527a50.014091 50.014091 0 0 1 9.58068-4.920646 177.238709 177.238709 0 0 0-9.9187-1.568826zM517.139972 545.376271c0.025803-0.033544 0.054186-0.059347 0.074828-0.098051-0.08515-0.412849-0.162559-0.779253-0.188362-1.032123 0.038705 0.368984 0.07999 0.75345 0.113534 1.130174zM533.821656 763.066453c1.130174-3.080887 3.798212-4.843236 4.920646-7.826071 0.536704-1.414008 0.092891-1.966194 0.547025-3.36214 1.555925-4.817433 0.874724-3.000897 0.00258-6.742342-2.046183-8.767883 0.727647-11.170149 3.117011-19.200065 2.451292-8.249242 2.216484-18.957516 3.795632-27.846673 0.745709-4.249766 1.971355-13.105379 0.487678-17.130659-1.666878-4.533599-8.976888-8.099584-12.323546-11.139185-4.742604-4.327175-7.258404-8.997531-10.783103-14.354248-1.785572-2.719644-3.818854-5.38252-5.214801-8.331811-2.982835-6.311431 0.00258-2.557084 0.495419-6.288208 0.485098-3.602109-0.425751-6.824912 1.003739-10.594741 1.576568-4.177517 5.527018-6.783627 6.822332-10.997269 1.161138-3.754347 0.276093-8.463407-3.571145-9.722596-2.144235-0.699263-4.507796 0.913429-6.662352 0.562507-3.006058-0.485098-6.406902-2.737706-8.762723-4.53102-3.282151-2.513219-4.525859-6.595265-8.024755-8.976888-2.94155-1.989417-5.021277-0.802475-8.161511-1.723645-3.27957-0.967615-5.299951-5.008376-7.934444-6.285628-3.963352-1.888785-6.195317 0.825698-10.375415 0.276093-3.560824-0.467036-8.976888-4.417486-12.310644-5.903742-6.757824-3.034441-10.875994-6.375939-13.582737-13.247297-2.311955-5.888261-5.686997-8.644029-9.658089-13.544031-4.03302-4.974832-5.289629-9.203955-11.490107-10.532813-0.730227-0.162559 1.517221 5.2148 1.749448 5.645711 2.213903 4.110429 5.54508 7.869936 8.226019 11.691372 3.934968 5.643131 2.260349 6.703638-1.749448 1.243708-4.582625-6.241763-9.905799-12.44224-13.884632-19.047827-1.501739-2.502898-1.215325-4.11559-3.692419-6.484311-2.399686-2.296473-5.537339-3.403425-7.942185-5.583785-8.680153-7.81317-10.261881-18.250512-9.273624-29.400018 0.322538-3.630492 1.635915-6.535918 1.055346-10.027073-0.485098-2.900265-2.190681-5.302531-4.324595-7.436445-0.688942-1.09663-2.420328-3.800792-2.518379-3.973673-1.973935-3.27699-3.498896-6.499793-6.63397-9.188473-1.666878-1.450133-5.841815-4.698739-9.944503-7.591263-25.410863 31.642305-40.616613 71.815105-40.616613 115.548728 0 101.996956 82.685938 184.685475 184.685475 184.685475 5.356717 0 10.664409-0.242549 15.907593-0.694103 0.327699-1.00632-0.353502-1.806215-3.380203-1.945551zM599.784625 633.759527c-0.495419-0.07999-1.617852 0.054186-2.064246-0.268351-0.270932 0.952133 0.141917 1.305635 2.064246 0.268351z" fill="#C1CBD3" p-id="1631"></path><path d="M691.671938 623.136403c-3.602109-3.137653-7.857035-7.343554-10.414119-11.402376-2.742866-4.332335-1.050185-8.783365-0.851501-13.742715 0.162559-4.169776-1.873303-10.104482-0.098052-13.86399 0.807636-1.710744 2.673198-2.283572 3.44471-3.684678 1.630754-2.975094 1.26435-4.992894 3.269249-7.547398 2.146815-2.742866 5.029018-3.418907 7.420963-5.576044 2.505478-2.257769 2.43323-4.03818 4.020118-6.935865 1.019221-1.85266 3.230544-4.783889 5.496054-6.71912a176.002742 176.002742 0 0 0-1.352081-7.90348 22.149355 22.149355 0 0 1-3.173777 0.518642c-2.131334 0.07999-3.710481-1.334019-5.235443-2.660297-1.558505-1.349501-3.387943-3.168617-4.489734-4.915485-1.181781-1.875883-0.454134-3.793051-0.371565-5.932126 0.061927-1.790733-0.807636-4.355558-0.049026-5.97341 0.348341-0.735387 1.150817-0.985677 1.486257-1.589469 0.699263-1.282413 0.544445-2.149396 1.406268-3.248607 0.92117-1.189522 2.175199-1.478516 3.202161-2.412587l0.069668-0.072249a184.685475 184.685475 0 0 0-41.032042-66.417102c-6.737182 0.201264-11.606221 0.376725-17.159042 4.218802-2.335178 1.620433-3.924647 3.764668-6.902321 4.598107-2.657716 0.750869-5.537339 0.092891-8.179573 0.990838-9.526494 3.243446-8.017014 23.692379-20.58827 20.601171-5.896002-1.452713-10.055456-8.437604-13.02797-12.994426-2.621592-4.014958-7.379678-7.330652-4.162035-12.349349-1.463034 0.376725-3.037021-0.054186-4.471672 0.224486 2.007479-4.425227 8.762723-4.0356 9.882575-6.298529 2.797053-5.663774-7.697056-6.257245-10.67473-7.041658 3.586627-3.818854 5.398002 1.287573 8.933023 0.42059 3.393104-0.8386-1.790733-5.323173-3.829175-5.826333-0.730227-0.178041-12.697691 3.310534-5.769567-2.892524-8.548557-5.457349-17.094534-10.912118-25.643091-16.377209-1.439811 6.074043 11.381734 9.516172 15.561832 11.665568-0.650237 2.510639-4.546501 6.161773-7.521595 5.090946-2.812535-1.01148-1.669459-5.668935-5.911484-5.20448-3.031861 7.049399 6.399161 4.992894 7.273886 9.307168 0.998579 4.923226-3.563404 2.838338-5.323174 2.748027-0.41801-0.020642-3.689839-3.406005-3.862719-0.846341-0.211585 3.052503 5.2148 1.862982 5.596686 4.936127-6.316592 0.260611-9.544556-2.022961-14.689688-5.447028-6.001794-3.991735-9.085261-3.627912-16.439136-3.627911 2.203582-0.908268 5.225122-1.576568 7.111326-3.037022 1.021802-0.799895 5.065143-4.721962 5.323173-5.599266 1.137915-3.78273-0.056767-3.493736-3.674357-5.96825-3.212482-2.203582-7.106166-6.148872-11.002429-6.935865-14.093637-2.817695-4.347817 12.746717-15.04577 14.893532 0.178041 0.007741 0.376725 0.015482 0.539284 0.015482h-0.611533c0.030964 0 0.054186-0.010321 0.072249-0.015482-2.477095-0.090311-7.116487-0.696683-8.713697 0.616693-1.130174 0.913429-1.225646 4.616169-2.479675 5.960509-2.239706 2.391945-5.583784 2.866721-8.251822 4.590367-2.616431 1.67978-8.362775 6.009535-9.900638 8.940763-5.645712 10.806326 12.733815 14.160725 19.698064 17.319021 3.150555 1.42949 12.344189 3.385363 14.057512 5.764406 2.301634 3.202161-1.984256 6.203058 2.820276 8.453086 1.532702 0.712165 4.685838 0.864403 6.012115-0.621854 2.139075-2.420328-0.872144-2.962192-1.388205-5.759246-0.993418-5.37994 0.647657-3.243446 3.349239-5.240603 5.511536-4.071724 4.265247-4.322014 2.288732-10.806326-0.913429-3.02154-4.386522-11.451403-1.34176-13.685948 3.978833-2.908006 12.475784 1.571407 15.530868 1.950712 3.558243 0.438652 5.568303 5.367039 7.506113 7.382258 1.287573 1.34434 3.594368 4.177517 5.836655 3.870461 3.571145-0.485098 2.079727-3.607269 4.138812-5.049661 5.54766-3.852398 7.018435 1.383045 9.224598 6.615907 2.079727 4.918065 4.045921 6.742342 7.753823 9.900638 1.721065 1.465614 9.258142 6.713959 8.548557 9.944503-0.485098 2.180359-9.090422 5.477992-11.399797 6.203058-8.419542 2.670618-24.20586-4.365879-25.898541 8.994951 3.269249-1.217905 12.550613-8.811748 15.332184-5.214801 1.272091 1.635915-1.01148 4.014958-0.469616 5.640551 1.584309 4.866459 5.330914 3.171197 9.263302 2.384204a7.085523 7.085523 0 0 1-0.828278 0.443813c5.367039-2.763509 4.809692-2.190681 7.271305-6.667513 0.807636-1.460454 1.997158-5.003215 3.135073-6.058561 3.904005-3.599528 4.502636-1.125014 6.925544 1.656557 0.632175 0.732807 6.613327 9.348452 4.479413 8.920121-6.951347-1.395946-13.626601-1.210164-19.398748 2.598369-3.320855 2.201002-6.466249 5.163194-10.432181 6.621068-0.949553 0.348341-7.998952 1.016641-7.157772-0.185782 1.217905-1.754609 5.403163-2.913167 7.041658-4.801951-4.569724-1.883624-8.385998 2.275831-11.988107 4.71164-3.816274 1.806215-4.693578 5.170935-7.947345 8.122807-1.416589 1.290154-4.097528 1.506899-5.490894 3.197-1.34434 1.646236-1.519801 4.231704-2.797052 5.782468-0.900527 1.09663-3.19442 0.438652-4.138813 2.084888-1.225646 2.154556 1.125014 4.146553 0.601212 5.702479-0.934071 2.820276-6.290789 5.20964-8.336972 7.235181 0.268352-0.268352 0.547025-0.534124 0.807636-0.807637-2.059085 2.170038-4.672936 3.759507-6.280467 6.270147 0.737968 3.542762 3.065405 11.980365 2.420328 13.923336-2.144235 6.394001-6.30627-3.473093-7.998952-6.022436-5.808271-8.757562-17.406751-2.895104-25.328294-2.170039-10.138026 0.92375-20.056726 14.098798-13.814964 24.78643 3.000897 5.119329 8.047978 7.108746 13.840767 5.924384 5.152873-1.057926 6.703638-8.275045 11.557195-8.4118 8.920121-0.239969 0.196103 8.754982-0.577988 12.047453-0.712165 3.062824 1.112112 3.341498 4.247185 4.097528 2.317116 0.557346 5.604427-0.995999 7.611906 0.33544 1.269511 0.833439 1.207584 5.426386 2.957031 3.976253-3.429228 2.848659-2.634493 9.598742 0.887626 12.039712 3.901424 2.706742 8.48921 0.193523 12.568676 1.235967 7.704797 1.976515 4.03302-0.58831 10.801165-4.678096 4.569724-2.755768 5.320593 0.516061 8.440184 0.531543 2.118432 0.007741 3.475674-3.065405 7.028756-2.167458 2.895104 0.727647 4.03302 2.962192 7.493212 3.488575 1.421749 0.211585 2.879623-0.534124 4.236864-0.381885 6.396581 0.707004 11.291424 4.801951 16.328183 8.504692 4.151714 3.049923 6.904902 2.422908 11.761039 3.816274 3.542762 1.016641 10.078679 6.148872 9.743239 10.656668-0.054186 0.807636-3.160876 4.863879-3.692419 6.690736 0.910848 0.627015 7.214538-0.786994 9.064619-0.913429-0.603792 0.701844-4.897423 3.725963-4.897423 2.123593 0 0.817957 3.042182 2.515799 3.78015 3.037021 2.239706-7.279046 5.919224-2.595789 10.349611-0.794735 3.764668 1.540443 8.40406 1.615272 12.419018 2.577727 3.406005 0.807636 10.92502 3.11185 13.453721 5.898582 3.044762 3.36214 0.934071 8.816909-1.310796 12.160987-2.946711 4.37362-7.377098 6.066302-9.214277 11.216595-1.452713 4.087206-0.366404 8.213117-1.189521 12.738975-1.127594 6.128229-2.0178 3.983994-5.96825 7.720279-3.313114 3.150555-0.054186 2.60611-4.569724 4.608428-4.54134 2.012639-8.535656 1.419169-11.668148 6.396581 0.126435-0.309637 0.229647-0.627015 0.312217-0.952133-1.326278 1.860401-1.989417 5.653453-2.613851 6.910062-1.581728 3.178938-3.764668 5.191578-6.275307 7.841553-0.959874 1.019221-9.781944 13.076996-10.282523 12.109381-0.657978-1.26177-7.611906 1.26177-7.944766-0.534123 0.270932 1.51206-0.061927 1.0089 1.664298 1.881043-1.59463 9.9187-5.787629 11.399796-15.515386 11.495268 0.8386 4.770988-3.519539 3.816274-5.54766 6.381099-1.184361 1.496578-1.752028 5.707639-2.572566 7.64545-0.50316 1.220485-4.303952 6.092105-4.303952 7.05972-0.005161 0.624434 0.629595 1.452713 1.42949 2.324857 69.67087-13.378892 125.413242-65.885559 143.472811-133.781178-3.044762-1.101791-5.617328-3.341498-8.117646-5.524438z" fill="#C1CBD3" p-id="1632" data-spm-anchor-id="a313x.7781069.0.i10"></path><path d="M597.671354 633.473113l0.051606 0.020643 0.00258-0.00258z" fill="#C1CBD3" p-id="1633"></path><path d="M550.459476 627.507444c-118.049046 91.9415-226.527733 150.070656-242.288248 129.830727-8.535656-10.950823 11.874573-42.629252 51.061695-83.929646 0.75603 1.367563 1.499158 2.655136 2.224225 3.875621-37.094494 38.449155-56.606775 67.389878-49.216776 76.885408 14.013647 17.989901 119.246308-40.544364 235.050487-130.733835 115.801599-90.186891 198.322397-177.886366 184.313911-195.876266-7.103585-9.113644-37.644099 1.444972-81.09647 25.782428a204.90218 204.90218 0 0 0-3.191839-3.062825c46.760324-25.674055 80.152077-36.436515 88.357453-25.895961 15.763096 20.245089-67.165392 111.185429-185.214438 203.124349z" fill="#E7E7E7" p-id="1634"></path><path d="M803.907552 294.503341l14.578735 12.867991a1.718484 1.718484 0 0 1 0.152238 2.417748l-0.988257 1.122434a1.721065 1.721065 0 0 1-2.420328 0.152238l-14.573574-12.865411a1.710744 1.710744 0 0 1-0.157399-2.410007l0.988257-1.130174a1.721065 1.721065 0 0 1 2.420328-0.154819z" fill="#ABAAAA" p-id="1635"></path><path d="M800.996966 293.930513l-15.88437 0.237388s5.805691-6.466249 11.792003-12.398375c5.986312-5.921805 9.681312-2.569986 9.681312-2.569986l-5.588945 14.730973zM832.608307 313.334422c-5.114169 6.662353-10.801165 13.208592-10.801165 13.208592l-1.76493-15.765676 13.889793-7.351295c0.005161 0 3.787891 3.248607-1.323698 9.908379z" fill="#C1CBD3" p-id="1636"></path><path d="M850.497576 257.530122l-39.726407 45.023777 9.131707 8.058299s11.441081-3.269249 20.516021-13.242136c14.444559-15.861147 10.089-39.778013 10.078679-39.83994z" fill="#EFEEED" p-id="1637"></path><path d="M836.989669 283.503492a7.054559 7.054559 0 0 1-10.576679-9.33297 7.054559 7.054559 0 0 1 10.576679 9.33297z m-1.76235-8.669831a5.341236 5.341236 0 1 0-7.070041 8.017014 5.351557 5.351557 0 0 0 7.549978-0.477357 5.341236 5.341236 0 0 0-0.479937-7.539657zM836.045276 258.717063a14.421336 14.421336 0 0 0 4.850978 9.750981 14.434237 14.434237 0 0 0 9.941922 3.589207c0.807636-8.226019-0.325119-14.480683-0.325118-14.480683s-6.484312-0.379305-14.467782 1.140495zM817.410299 299.8678c-4.244605 4.809692-15.118019 12.308064-15.118019 12.308064s6.355296-11.397216 10.785684-16.418493c4.425227-5.023858 7.165513-3.934968 7.165512-3.934969s1.883624 2.704162-2.833177 8.045398z" fill="#C1CBD3" p-id="1638"></path></svg>