<?xml version="1.0" standalone="no"?><!DOCTYPE svg PUBLIC "-//W3C//DTD SVG 1.1//EN" "http://www.w3.org/Graphics/SVG/1.1/DTD/svg11.dtd"><svg t="1523520307227" class="icon" style="" viewBox="0 0 1024 1024" version="1.1" xmlns="http://www.w3.org/2000/svg" p-id="2057" xmlns:xlink="http://www.w3.org/1999/xlink" width="400" height="400"><defs><style type="text/css"></style></defs><path d="M752.35681 617.160942l192.94859 96.937463-13.843417 27.568139-192.964072-96.937462-12.976429 25.844485a19.274991 19.274991 0 0 1-25.87803 8.571823l-32.73394-16.44438a16.694671 16.694671 0 0 1-1.682368-0.957298l-12.161048 24.211142a19.274991 19.274991 0 0 1-25.883191 8.571824l-79.249368-39.814338a19.280151 19.280151 0 0 1-8.571824-25.88319l5.23547-10.421913a20.188424 20.188424 0 0 1-1.7701-0.781837l-8.607947-4.324616 19.907169-39.625975 8.613108 4.329777c0.580572 0.294156 1.137921 0.611536 1.682369 0.949558l26.912737-53.577765a19.680101 19.680101 0 0 1-1.770099-0.781837l-8.613108-4.329777 19.912329-39.625975 8.613108 4.329777c0.580572 0.294156 1.137921 0.611536 1.682369 0.949558l8.693098-17.308786a19.26983 19.26983 0 0 1 25.87803-8.574404l79.254529 39.814338a19.280151 19.280151 0 0 1 8.571823 25.88319l-11.299221 22.482328c0.593474 0.224488 1.189528 0.48252 1.770099 0.776677l32.739101 16.444379a19.282732 19.282732 0 0 1 8.566662 25.88319l-12.976429 25.841905z m-217.920927-120.263555c-10.463198-5.253532-14.682021-18.002893-9.42849-28.468671l0.866988-1.726234a21.199909 21.199909 0 0 1 28.468671-9.425909l41.354788 20.766416-19.912329 39.625974-41.349628-20.771576z m-5.392869 113.802434l-41.344468-20.768996a21.20765 21.20765 0 0 1-9.425909-28.473831l0.861827-1.721074a21.210231 21.210231 0 0 1 28.473831-9.431069l41.339307 20.774156-19.904588 39.620814zM475.207217 374.456041l-91.309785-45.87809a19.285312 19.285312 0 0 0-25.88577 8.576984l-11.252776 22.394598-41.339307-20.766416a19.274991 19.274991 0 0 0-25.88577 8.569243l-11.252776 22.399758-174.00388-87.418662-15.582553 31.007706 174.011621 87.416081-10.390948 20.676105a19.274991 19.274991 0 0 0 8.576984 25.88319l41.341887 20.766415-12.117183 24.120832a19.280151 19.280151 0 0 0 8.576984 25.88319l91.309784 45.87551a19.280151 19.280151 0 0 0 25.88319-8.574404l77.897282-155.04885a19.282732 19.282732 0 0 0-8.576984-25.88319z m-137.293668 115.786701l-1.726234-0.869568a2.882217 2.882217 0 0 1-1.282419-3.878221l54.527323-108.541162c0.712168-1.426917 2.451304-1.999748 3.878221-1.282419l1.726234 0.861827c1.426917 0.719909 2.002328 2.459045 1.282419 3.883382l-54.527323 108.536001a2.889958 2.889958 0 0 1-3.878221 1.29016z m20.655462 12.927403l-1.721073-0.861827a2.897699 2.897699 0 0 1-1.290161-3.883382l54.527323-108.536001a2.892539 2.892539 0 0 1 3.885962-1.282419l1.721074 0.861827c1.426917 0.719909 2.007489 2.451304 1.29016 3.883382l-54.527323 108.536001a2.892539 2.892539 0 0 1-3.885962 1.282419z m79.068746-96.885856l-54.527322 108.538581c-0.712168 1.429497-2.451304 2.002328-3.878221 1.282419l-1.726234-0.861827a2.889958 2.889958 0 0 1-1.282419-3.883381l54.527322-108.536001a2.892539 2.892539 0 0 1 3.878221-1.29016l1.726234 0.869567c1.426917 0.714749 2.002328 2.453884 1.282419 3.880802z" fill="#C1CBD3" p-id="2058"></path></svg>